<svg xmlns="http://www.w3.org/2000/svg" viewBox="0 0 148.82 148.82"><defs><style>.cls-1{fill:none;stroke:#000;stroke-miterlimit:10;stroke-width:6px;}</style></defs><title>LinkedInIconLightTheme</title><g id="Layer_2" data-name="Layer 2"><g id="Capa_1" data-name="Capa 1"><circle class="cls-1" cx="74.41" cy="74.41" r="71.41"/><g id="Layer_2-2" data-name="Layer 2"><g id="Layer_1-2" data-name="Layer 1-2"><path id="LinkedIn" d="M104.5,80.72V103h-13V82.21c0-5.24-1.87-8.81-6.56-8.81a7.09,7.09,0,0,0-6.65,4.74,8.87,8.87,0,0,0-.43,3.16V103h-13s.17-35.32,0-39h13v5.52l-.09.13h.09v-.13A12.87,12.87,0,0,1,89.54,63.1C98.11,63.17,104.5,68.74,104.5,80.72ZM51.38,45.3c-4.43,0-7.33,2.91-7.33,6.73s2.82,6.74,7.16,6.74h.09c4.52,0,7.33-3,7.33-6.74S55.82,45.3,51.38,45.3ZM44.82,103h13V64h-13Z"/></g></g></g></g></svg>