<svg xmlns="http://www.w3.org/2000/svg" viewBox="0 0 148.82 148.82"><g data-name="Layer 2"><circle cx="74.41" cy="74.41" r="71.41" fill="none" stroke="#416cad" stroke-miterlimit="10" stroke-width="6" data-name="Capa 1"/><g data-name="Layer 1"><g data-name="&lt;Group&gt;"><path data-name="&lt;Path&gt;" d="M109.05 83a134.51 134.51 0 0 1 9.68 9.73 28.29 28.29 0 0 1 3.47 5c1.33 2.58.13 5.43-2.19 5.58h-14.4a11.11 11.11 0 0 1-9.17-3.73c-2-2-3.84-4.19-5.76-6.29A13.63 13.63 0 0 0 88.1 91c-2-1.28-3.67-.89-4.79 1.16a15.13 15.13 0 0 0-1.52 6.72c-.15 3.39-1.18 4.28-4.58 4.44-7.28.34-14.18-.76-20.6-4.43-5.66-3.24-10-7.81-13.86-13-7.44-10.06-13.14-21.12-18.25-32.5-1.15-2.56-.31-3.94 2.52-4 4.7-.09 9.39-.08 14.09 0A4.14 4.14 0 0 1 45 52.32 87.37 87.37 0 0 0 54.57 70a15.1 15.1 0 0 0 3.61 4c1.67 1.14 2.94.76 3.73-1.1a12.28 12.28 0 0 0 .83-3.71 55.29 55.29 0 0 0-.23-13 5.42 5.42 0 0 0-4.62-5c-1.38-.26-1.17-.77-.5-1.56a5.18 5.18 0 0 1 4.42-2.2h16.26c2.56.51 3.13 1.66 3.48 4.23v18.1c0 1 .5 4 2.3 4.62 1.44.47 2.39-.68 3.25-1.59a56 56 0 0 0 9.17-14.09c1.1-2.22 2.05-4.54 3-6.84a3.48 3.48 0 0 1 3.68-2.52h15.66a8.26 8.26 0 0 1 1.38.08c2.64.45 3.36 1.58 2.55 4.16-1.28 4-3.78 7.41-6.23 10.8-2.61 3.61-5.4 7.1-8 10.74-2.38 3.32-2.19 5 .77 7.88z" fill="#416cad"/></g></g></g></svg>