<svg xmlns="http://www.w3.org/2000/svg" viewBox="0 0 148.82 148.82"><defs><style>.cls-1{fill:none;stroke:#fff;stroke-miterlimit:10;stroke-width:6px;}.cls-2{fill:#fff;}</style></defs><title>InstagramIconDarkTheme</title><g id="Layer_2" data-name="Layer 2"><g id="Capa_1" data-name="Capa 1"><circle class="cls-1" cx="74.41" cy="74.41" r="71.41"/><path class="cls-2" d="M88.63,35.82H59.38A24.38,24.38,0,0,0,35,60.19V89.44a24.38,24.38,0,0,0,24.38,24.37H88.63A24.38,24.38,0,0,0,113,89.44V60.19A24.38,24.38,0,0,0,88.63,35.82Zm17.06,53.62A17.08,17.08,0,0,1,88.63,106.5H59.38A17.08,17.08,0,0,1,42.31,89.44V60.19A17.08,17.08,0,0,1,59.38,43.13H88.63a17.08,17.08,0,0,1,17.06,17.06Z"/><path class="cls-2" d="M74,55.32a19.5,19.5,0,1,0,19.5,19.5A19.5,19.5,0,0,0,74,55.32ZM74,87A12.19,12.19,0,1,1,86.19,74.82,12.2,12.2,0,0,1,74,87Z"/><circle class="cls-2" cx="94.96" cy="53.85" r="2.6"/></g></g></svg>