<svg xmlns="http://www.w3.org/2000/svg" viewBox="0 0 148.82 148.82"><defs><style>.cls-1{fill:#1ed760;stroke:#1ed760;stroke-miterlimit:10;stroke-width:6px;}.cls-2{fill:#fff;}</style></defs><title>SpotifyIconHighlighted</title><g id="Layer_2" data-name="Layer 2"><g id="Capa_1" data-name="Capa 1"><circle class="cls-1" cx="74.41" cy="74.41" r="71.41"/><path class="cls-2" d="M30,45.75,31.5,54a156.48,156.48,0,0,1,88.65,10.37l3.31-7.69A164.86,164.86,0,0,0,30,45.75Z"/><path class="cls-2" d="M31.38,71.07l-.21,0,1.65,8.22.21,0a131.33,131.33,0,0,1,80,9.42l3.5-7.61A139.76,139.76,0,0,0,31.38,71.07Z"/><path class="cls-2" d="M38.6,95.29l1.47,8.25a104.69,104.69,0,0,1,60.27,7l3.34-7.69A113.06,113.06,0,0,0,38.6,95.29Z"/></g></g></svg>