<svg xmlns="http://www.w3.org/2000/svg" viewBox="0 0 148.82 148.82"><defs><style>.cls-1{fill:none;stroke:#000;stroke-miterlimit:10;stroke-width:6px;}</style></defs><title>SpotifyIconLightTheme</title><g id="Layer_2" data-name="Layer 2"><g id="Capa_1" data-name="Capa 1"><circle class="cls-1" cx="74.41" cy="74.41" r="71.41"/><path d="M31,47.75,32.5,56a156.48,156.48,0,0,1,88.65,10.37l3.31-7.69A164.86,164.86,0,0,0,31,47.75Z"/><path d="M32.38,73.07l-.21,0,1.65,8.22.21,0a131.33,131.33,0,0,1,80,9.42l3.5-7.61A139.76,139.76,0,0,0,32.38,73.07Z"/><path d="M39.6,97.29l1.47,8.25a104.69,104.69,0,0,1,60.27,7l3.34-7.69A113.06,113.06,0,0,0,39.6,97.29Z"/></g></g></svg>