<svg xmlns="http://www.w3.org/2000/svg" viewBox="0 0 47.79 47.79"><defs><style>.cls-1{fill:#8a559e;}</style></defs><title>GearIconHighlighted</title><g id="Layer_2" data-name="Layer 2"><g id="Capa_1" data-name="Capa 1"><g id="Settings"><path class="cls-1" d="M47.64,21.24a1.56,1.56,0,0,0-1.54-1.18,5.28,5.28,0,0,1-3.61-9.18,1.33,1.33,0,0,0,.15-1.8,23.64,23.64,0,0,0-3.79-3.82A1.33,1.33,0,0,0,37,5.4a5.51,5.51,0,0,1-6,1.34,5.31,5.31,0,0,1-3.23-5.19A1.33,1.33,0,0,0,26.67.16a23.85,23.85,0,0,0-5.38,0,1.33,1.33,0,0,0-1.18,1.37,5.32,5.32,0,0,1-3.27,5.1,5.52,5.52,0,0,1-5.91-1.35,1.33,1.33,0,0,0-1.8-.15A23.73,23.73,0,0,0,5.26,8.93a1.33,1.33,0,0,0,.14,1.82,5.29,5.29,0,0,1,1.34,6,5.52,5.52,0,0,1-5.2,3.23A1.3,1.3,0,0,0,.16,21.11a23.94,23.94,0,0,0,0,5.43,1.58,1.58,0,0,0,1.57,1.17A5.24,5.24,0,0,1,6.63,31,5.31,5.31,0,0,1,5.3,36.9a1.33,1.33,0,0,0-.15,1.8,23.73,23.73,0,0,0,3.78,3.82,1.33,1.33,0,0,0,1.82-.14,5.5,5.5,0,0,1,6-1.34,5.3,5.3,0,0,1,3.23,5.19,1.33,1.33,0,0,0,1.17,1.4,23.78,23.78,0,0,0,5.38,0,1.33,1.33,0,0,0,1.18-1.37,5.31,5.31,0,0,1,3.27-5.1,5.51,5.51,0,0,1,5.92,1.35,1.34,1.34,0,0,0,1.8.15,23.79,23.79,0,0,0,3.87-3.82A1.33,1.33,0,0,0,42.38,37a5.29,5.29,0,0,1-1.34-6,5.35,5.35,0,0,1,4.89-3.24h.3a1.33,1.33,0,0,0,1.4-1.17A23.91,23.91,0,0,0,47.64,21.24ZM23.93,31.91a8,8,0,1,1,8-8A8,8,0,0,1,23.93,31.91Z"/></g></g></g></svg>