<svg xmlns="http://www.w3.org/2000/svg" viewBox="0 0 148.82 148.82"><defs><style>.cls-1{fill:none;stroke:#fff;stroke-miterlimit:10;stroke-width:6px;}.cls-2{fill:#fff;}</style></defs><title>SoundcloudIconDarkTheme</title><g id="Layer_2" data-name="Layer 2"><g id="Capa_1" data-name="Capa 1"><circle class="cls-1" cx="74.41" cy="74.41" r="71.41"/><path class="cls-2" d="M27.77,91.69l1.64-7-1.64-7.24c0-.22-.46-.38-1-.38s-.92.16-1,.38l-1.44,7.24,1.44,7c0,.22.45.38,1,.38S27.73,91.91,27.77,91.69ZM38,95.58l1.39-10.82L38,68c0-.43-.56-.76-1.19-.76s-1.16.33-1.19.76L34.41,84.76l1.23,10.82c0,.42.55.76,1.19.76S38,96,38,95.58Zm10.23-.18,1.16-10.64L48.25,62.48c0-.52-.65-.93-1.4-.93s-1.38.41-1.41.93l-1,22.29,1,10.64c0,.52.65.93,1.41.93S48.22,95.92,48.25,95.4Zm10.21-.16,1-10.48-1-22.45c0-.62-.73-1.11-1.6-1.11s-1.58.49-1.6,1.11l-.85,22.45.85,10.48c0,.61.72,1.1,1.6,1.1S58.44,95.86,58.46,95.24Zm10.2-.13.75-10.34L68.66,59c0-.71-.82-1.28-1.79-1.28s-1.77.58-1.79,1.28l-.67,25.73s.67,10.35.67,10.35c0,.7.82,1.27,1.79,1.27S68.64,95.82,68.66,95.11Zm7.14,1.28,35.72,0a12.47,12.47,0,1,0,0-24.93,13.27,13.27,0,0,0-5,1c-1-11.23-10.77-20-22.64-20a23.76,23.76,0,0,0-8.24,1.49c-1,.37-1.23.74-1.24,1.47V94.92A1.53,1.53,0,0,0,75.8,96.39Z"/></g></g></svg>