<svg xmlns="http://www.w3.org/2000/svg" viewBox="0 0 148.82 148.82"><g data-name="Layer 2"><circle cx="74.41" cy="74.41" r="71.41" fill="none" stroke="#000" stroke-miterlimit="10" stroke-width="6" data-name="Capa 1"/><path d="M74.47 105.85h-.82a12.9 12.9 0 0 1-8.5-2.91c-1.75-1.16-3.38-2.33-5.24-2.68A26.61 26.61 0 0 0 57 100a15.64 15.64 0 0 0-3.84.47 8.6 8.6 0 0 1-1.4.23 1.05 1.05 0 0 1-1-.7c-.12-.58-.23-1-.35-1.51-.23-1.28-.47-2.1-1-2.21-6.5-.91-8.25-2.28-8.71-3.28v-.47a.65.65 0 0 1 .58-.7c9.78-1.63 14.21-11.65 14.32-12a3.85 3.85 0 0 0 .4-3.09c-.7-1.63-2.91-2.33-4.31-2.79a8 8 0 0 1-.93-.35c-2.91-1.16-3.14-2.33-3-2.91a2.71 2.71 0 0 1 2.68-1.75 1.73 1.73 0 0 1 .82.12 8.71 8.71 0 0 0 3.49.93 2.78 2.78 0 0 0 2.1-.7c0-.7-.12-1.4-.12-2.1-.35-4.66-.7-10.36.82-13.62C61.78 43.78 71.09 43 73.89 43h1.28A17.91 17.91 0 0 1 91.7 53.57c1.51 3.26 1 9.08.82 13.62v.23c0 .7-.12 1.28-.12 1.86a2.79 2.79 0 0 0 1.86.7 7.77 7.77 0 0 0 3.26-.93 3.4 3.4 0 0 1 1-.23 3.45 3.45 0 0 1 1.16.23c.93.35 1.63 1 1.63 1.75s-.47 1.75-3 2.68a8 8 0 0 1-.93.35C96 74.29 93.8 75 93.1 76.62a3.92 3.92 0 0 0 .35 3.14c.23.47 4.31 10.48 14.09 12.11a.74.74 0 0 1 .58.7.88.88 0 0 1-.12.43c-.35.93-2 2.21-8.38 3.26-.47.12-.7.7-1 2.21-.12.47-.23 1-.35 1.51a.89.89 0 0 1-.93.7h-.12a8.6 8.6 0 0 1-1.4-.23 18 18 0 0 0-3.84-.35 22.61 22.61 0 0 0-2.79.23c-1.86.35-3.49 1.51-5.24 2.68a15.4 15.4 0 0 1-9.43 2.79" data-name="Layer 1"/></g></svg>