<svg xmlns="http://www.w3.org/2000/svg" viewBox="0 0 142.82 142.82"><defs><style>.cls-1{fill:#fff;}</style></defs><title>GithubIconLightTheme</title><g id="Layer_2" data-name="Layer 2"><g id="Capa_1" data-name="Capa 1"><path class="cls-1" d="M71.41,6A65.41,65.41,0,1,1,6,71.41,65.48,65.48,0,0,1,71.41,6m0-6a71.41,71.41,0,1,0,71.41,71.41A71.41,71.41,0,0,0,71.41,0Z"/></g><g id="Layer_1-2" data-name="Layer 1"><g id="Layer_2-2" data-name="Layer 2"><g id="Layer_1-2-2" data-name="Layer 1-2"><g id="Github_alt_" data-name="Github alt "><path class="cls-1" d="M64.2,111.44c-.24,0-.5,0-.76,0a3,3,0,0,1,.83-1.79,6.3,6.3,0,0,0,1-1.77c1-2.92.78-6.51.53-10.31a42.62,42.62,0,0,1,0-8.15L66,88.2l-1,.72c-2.21,1.66-1.9,5.31-1.57,9.17.26,3,.52,6.13-.45,8.23-.82,1.79-3,3-5.53,3A6.94,6.94,0,0,1,55.4,109a2.75,2.75,0,0,1,1.35-1.26,4.42,4.42,0,0,0,2-1.94c.81-1.72.68-3.83.53-6.06a26.39,26.39,0,0,1,0-4.79l.08-.68-.67.13a22.57,22.57,0,0,1-4.37.46c-4.44,0-7.76-1.6-9.6-4.64a14.35,14.35,0,0,1-1.15-2.56,11.76,11.76,0,0,0-1.69-3.36,7.91,7.91,0,0,0-2-1.68A4.75,4.75,0,0,1,38,80.81a7.57,7.57,0,0,1,1.32-.12c3,0,4.68,2.05,6.5,4.23,1.94,2.32,4,4.73,7.62,4.85h.37a11.1,11.1,0,0,0,3.71-.7c.51-.16,1-.34,1.67-.49l.31-.08.06-.32a9.38,9.38,0,0,1,3.56-5.74l1-.73-1.2-.16C52.1,80.09,45.69,76.63,42.64,70.67l-.15-.29h-.06a2.76,2.76,0,0,0-1-1.62l-.19-.6c-2.5-7.72-1.51-19.57,3.55-23.87l.27-.23L45,43.73c-1.4-3.52-1-9.39.74-12.32,5.37.31,8.72,2.54,12.25,4.9l.72.48.22-.06A45.91,45.91,0,0,1,71.43,35c1.08,0,2.17,0,3.25.11a21.67,21.67,0,0,1,3.6.63,16.28,16.28,0,0,0,3.49.56h0l.47,0a9.47,9.47,0,0,0,4.12-2A16.36,16.36,0,0,1,88.48,33a18.09,18.09,0,0,1,6.88-1.59c1.31,3.17,2,8,.79,11.42l-.11.32.26.22c5.1,4.35,7.14,15.38,4.54,24.59l-.17.59.37,0a1.84,1.84,0,0,0-.93,1.86l0,.32c-3.32,6.39-9.75,9.85-19.65,10.58l-.72.05.3.65a10.7,10.7,0,0,0,1.43,2.18,8.18,8.18,0,0,1,2.05,4.42,42.15,42.15,0,0,1,0,7.43c-.21,3.84-.41,7.47.75,9.71a5.2,5.2,0,0,0,1.9,2,5.25,5.25,0,0,1,1.17,1,2.81,2.81,0,0,1-1.91.64c-2.4,0-5.4-2-5.84-4a24.25,24.25,0,0,1-.08-6.86c.28-3.67.58-7.47-1.44-9.63l-.92-1,.05,1.35c.08,1.94-.06,4.14-.21,6.47-.27,4.2-.55,8.55.47,11.8a6.78,6.78,0,0,0,1.15,2.06c.52.71.83,1.16.78,1.75l-.67,0h0A5.14,5.14,0,0,1,74.91,110c-2.32-2.33-2.3-7.47-2.28-12.45a47.35,47.35,0,0,0-.52-9.07L72,88l-.44,0a1.54,1.54,0,0,0-1.12.54,3.71,3.71,0,0,0-.34,2.71,6.93,6.93,0,0,1,.06.77c0,1.21,0,2.47.07,3.75.15,5.67.3,11.54-2.27,14.18A5,5,0,0,1,64.2,111.44Z"/><path class="cls-1" d="M95,31.9c1.19,3.08,1.77,7.56.66,10.74l-.23.65.52.44c5,4.24,6.93,15,4.38,24.08l-.25.88a2.47,2.47,0,0,0-.49,1.75v.19c-3.25,6.14-9.53,9.48-19.18,10.2L79,80.93l.6,1.31a11.11,11.11,0,0,0,1.49,2.28A7.75,7.75,0,0,1,83,88.69a41.77,41.77,0,0,1,0,7.33c-.22,3.91-.42,7.6.8,10a5.62,5.62,0,0,0,2.06,2.17,8.3,8.3,0,0,1,.68.5,2.65,2.65,0,0,1-1.13.23c-2.29,0-5-2-5.35-3.58A24,24,0,0,1,80,98.6c.29-3.78.59-7.69-1.57-10l-1.84-2,.11,2.69c.08,1.91-.06,4.1-.21,6.42-.27,4.25-.55,8.64.49,12a7.3,7.3,0,0,0,1.22,2.21,4.69,4.69,0,0,1,.61,1h-.1a4.67,4.67,0,0,1-3.49-1.24c-2.17-2.18-2.15-7.22-2.13-12.1a47.66,47.66,0,0,0-.53-9.17l-.17-.86-.88.06a2,2,0,0,0-1.47.71,4.05,4.05,0,0,0-.46,3.08,7,7,0,0,1,.06.72c0,1.21,0,2.45.07,3.75.14,5.31.3,11.33-2.13,13.82a4.52,4.52,0,0,1-3.42,1.27H64a4.27,4.27,0,0,1,.64-1A6.72,6.72,0,0,0,65.78,108c1.05-3,.81-6.66.56-10.51a42.28,42.28,0,0,1,0-8.06l.31-2.36-1.91,1.43c-2.43,1.83-2.11,5.61-1.77,9.61.25,2.95.51,6-.4,8-.73,1.59-2.82,2.7-5.08,2.7a6.59,6.59,0,0,1-1.22-.11,5.39,5.39,0,0,1,.78-.52A4.9,4.9,0,0,0,59.21,106c.87-1.83.73-4,.58-6.31a26,26,0,0,1,0-4.7l.16-1.36-1.35.27a22,22,0,0,1-4.27.45c-4.25,0-7.42-1.52-9.18-4.41A13.81,13.81,0,0,1,44,87.49,12.13,12.13,0,0,0,42.26,84a8.42,8.42,0,0,0-2.13-1.79,6.75,6.75,0,0,1-1.31-1l.45,0c2.73,0,4.3,1.88,6.12,4s4.1,4.9,8,5h.39a11.51,11.51,0,0,0,3.86-.73c.51-.16,1-.33,1.63-.48l.62-.15.12-.63a8.88,8.88,0,0,1,3.37-5.43l1.93-1.46-2.4-.33c-10.55-1.44-16.84-4.81-19.81-10.62L42.85,70a3.18,3.18,0,0,0-.93-1.5L41.76,68c-2.45-7.57-1.52-19.16,3.39-23.33l.55-.46-.26-.67c-1.31-3.3-1-8.73.55-11.61,5.06.37,8.29,2.53,11.7,4.8l.53.35.38.25.44-.13a45.42,45.42,0,0,1,12.39-1.72c1.07,0,2.15,0,3.22.11a21.31,21.31,0,0,1,3.51.61,16.62,16.62,0,0,0,3.6.58l.51,0a9.81,9.81,0,0,0,4.35-2.07,16.05,16.05,0,0,1,2-1.27A17.6,17.6,0,0,1,95,31.9m.66-1a18.71,18.71,0,0,0-7.42,1.64c-1.93.9-4.06,3.08-6.08,3.25l-.42,0c-2,0-4.56-1-7.05-1.19q-1.64-.12-3.28-.12a46.43,46.43,0,0,0-12.66,1.76c-3.74-2.49-7.36-5.08-13.32-5.35-2,3-2.45,9.2-.94,13-5.34,4.54-6.19,16.72-3.7,24.4H36.46c-6.58,0-13,.14-17.86,1.86a127.76,127.76,0,0,1,15.66-1.63c1.05,0,2.35-.2,3.58-.2,2,0,3.82.4,4.13,2.28-8.62.31-16.63,1.17-23.15,3.52A127.54,127.54,0,0,1,42.19,70.9c3.57,7,11.26,9.88,20.57,11.15a9.89,9.89,0,0,0-3.74,6c-2,.49-3.14,1.18-5.26,1.18H53.4c-6.83-.24-7.69-9.08-14.13-9.08a8.5,8.5,0,0,0-2,.25c.68,2.28,2.82,2.44,4.2,4.18s1.63,4,2.81,5.87c2,3.23,5.47,4.88,10,4.88a23,23,0,0,0,4.47-.47c-.47,4,.82,8-.47,10.69-.94,2-3.11,1.62-3.52,3.72a7.25,7.25,0,0,0,2.66.49c2.52,0,5-1.21,6-3.28,2.25-4.91-1.77-14.47,1.87-17.21-.8,6,1.27,13.4-.47,18.37-.59,1.69-2.15,2.32-1.87,4.18a10,10,0,0,0,1.23.08c8.13,0,6.48-11.42,6.48-19.85,0-1-.72-3.4.94-3.52,1.77,8.74-2.45,23.31,7.13,23.31a10.77,10.77,0,0,0,1.09-.06c.48-1.75-1.27-2.49-1.87-4.43-1.54-4.92,0-12.64-.23-18.14,3.13,3.36.22,11.23,1.4,16.27.48,2.13,3.7,4.35,6.32,4.35A3.21,3.21,0,0,0,88,108.8c-.93-1.49-2.39-1.54-3.27-3.26-1.88-3.62,0-11.55-.7-17-.5-3.63-2.49-4.48-3.52-6.74,9.64-.72,16.57-4.08,20.1-10.93,8.4.23,16.61,1.91,23.37,3-6.82-2.16-15.07-2.86-23.37-3.52-.09-1.85,1.91-1.76,3.27-1.85,1-.07,2-.1,3.07-.1,6.22,0,12.49,1.12,17.26,1.73-6-2.37-15.17-1.5-22.9-2.09,2.59-9.2.74-20.47-4.7-25.11,1.33-3.79.43-9-.94-12.09Z"/></g></g></g></g></g></svg>