<svg xmlns="http://www.w3.org/2000/svg" viewBox="0 0 148.82 148.82"><defs><style>.cls-1{fill:none;stroke:#000;stroke-miterlimit:10;stroke-width:6px;}</style></defs><title>GithubIconDarkTheme</title><g id="Layer_2" data-name="Layer 2"><g id="Capa_1" data-name="Capa 1"><circle class="cls-1" cx="74.41" cy="74.41" r="71.41"/></g><g id="Layer_1-2" data-name="Layer 1"><g id="Layer_2-2" data-name="Layer 2"><g id="Layer_1-2-2" data-name="Layer 1-2"><path id="Github_alt_" data-name="Github alt " d="M98.69,33.88c1.37,3.12,2.27,8.3.94,12.09,5.43,4.64,7.29,15.91,4.7,25.11,7.74.59,16.95-.28,22.9,2.09-5.56-.72-13.16-2.11-20.33-1.63-1.36.09-3.37,0-3.27,1.85,8.3.66,16.55,1.36,23.37,3.52-6.76-1.1-15-2.78-23.37-3-3.52,6.84-10.46,10.21-20.1,10.93,1,2.25,3,3.11,3.52,6.74.73,5.42-1.17,13.36.7,17,.88,1.73,2.35,1.77,3.27,3.26-2.35,2.79-8.22-.32-8.89-3.26-1.17-5,1.74-12.91-1.4-16.27.22,5.49-1.3,13.22.23,18.14.6,1.94,2.35,2.68,1.87,4.43-11,1.12-6.39-14.2-8.22-23.25-1.66.12-.93,2.48-.94,3.52,0,8.83,1.81,20.94-7.71,19.77-.28-1.85,1.28-2.49,1.87-4.18,1.74-5-.33-12.37.47-18.37-3.64,2.73.39,12.3-1.87,17.21-1.29,2.82-5.48,4-8.65,2.79.41-2.1,2.58-1.76,3.52-3.72,1.29-2.72,0-6.66.47-10.69-6.73,1.34-11.94-.2-14.5-4.41-1.17-1.9-1.42-4.13-2.81-5.87s-3.52-1.9-4.2-4.18c8.33-2,8.65,8.57,16.13,8.83,2.35.08,3.52-.66,5.61-1.17a9.9,9.9,0,0,1,3.74-6c-9.31-1.27-17-4.17-20.57-11.15a127.56,127.56,0,0,0-23.37,3.25C28.34,74.8,36.36,73.93,45,73.63c-.5-3.05-5-2.21-7.71-2.09A127.79,127.79,0,0,0,21.6,73.17c5.87-2.1,14.2-1.84,22.21-1.85-2.49-7.69-1.64-19.86,3.7-24.4-1.51-3.81-1-10,.94-13,6,.27,9.58,2.86,13.32,5.35A46.42,46.42,0,0,1,77.71,37.6c2.68.15,5.46,1.35,7.48,1.17s4.16-2.35,6.08-3.25A18.71,18.71,0,0,1,98.69,33.88Z"/></g></g></g></g></svg>