<svg xmlns="http://www.w3.org/2000/svg" viewBox="0 0 148.82 148.82"><defs><style>.cls-1{fill:none;stroke:#000;stroke-miterlimit:10;stroke-width:6px;}</style></defs><title>PersonalWebsiteIconLightTheme</title><g id="Layer_2" data-name="Layer 2"><g id="Capa_1" data-name="Capa 1"><circle class="cls-1" cx="74.41" cy="74.41" r="71.41"/></g><g id="Layer_1-2" data-name="Layer 1"><path class="cls-1" d="M89.25,74a130.14,130.14,0,0,1-2.6,26.8C84,112.87,79.7,120.83,74.79,120.95h-.32c-4.86-.22-9.15-8.12-11.74-20.12A129.32,129.32,0,0,1,60.11,74a129.32,129.32,0,0,1,2.62-26.88c2.59-12,6.88-19.9,11.74-20.12h.32C79.7,27.08,84,35,86.64,47.16A130.14,130.14,0,0,1,89.25,74Z"/><path class="cls-1" d="M121.68,74a47,47,0,0,1-47,47H74A47,47,0,0,1,39.31,43h0A46.8,46.8,0,0,1,74,27h.68A46.86,46.86,0,0,1,110,43h0A46.81,46.81,0,0,1,121.68,74Z"/><line class="cls-1" x1="27.68" y1="73.95" x2="121.68" y2="73.95"/><path class="cls-1" d="M39.33,105a137.3,137.3,0,0,1,70.73-.12"/><path class="cls-1" d="M110.26,43a135.68,135.68,0,0,1-23.86,4.15q-5.68.48-11.5.48-6.27,0-12.42-.55A135.65,135.65,0,0,1,39.56,43"/></g></g></svg>