<svg xmlns="http://www.w3.org/2000/svg" viewBox="0 0 37.01 29.35"><title>ImageIconLightTheme</title><g id="Layer_2" data-name="Layer 2"><g id="Capa_1" data-name="Capa 1"><path d="M36.37,0H.64A.64.64,0,0,0,0,.64V28.72a.64.64,0,0,0,.64.64H36.37a.64.64,0,0,0,.64-.64V.64A.64.64,0,0,0,36.37,0Zm-.64,28.08H1.28V1.28H35.73Z"/><path d="M10.21,14.13a3.55,3.55,0,1,0-3.55-3.55A3.56,3.56,0,0,0,10.21,14.13Zm0-5.83a2.28,2.28,0,1,1-2.28,2.28A2.28,2.28,0,0,1,10.21,8.3Z"/><path d="M4.47,25.52a.64.64,0,0,0,.42-.16L15.3,16.2l6.57,6.57a.64.64,0,0,0,.9-.9L19.71,18.8l5.86-6.42L32.75,19a.64.64,0,0,0,.86-.94L26,11a.66.66,0,0,0-.46-.17.64.64,0,0,0-.44.21L18.8,17.9l-3-3a.64.64,0,0,0-.87,0L4,24.41a.64.64,0,0,0,.42,1.12Z"/></g></g></svg>