<svg xmlns="http://www.w3.org/2000/svg" viewBox="0 0 148.82 148.82"><g data-name="Layer 2"><g data-name="Capa 1"><circle cx="74.41" cy="74.41" r="71.41" fill="none" stroke="#000" stroke-miterlimit="10" stroke-width="6"/><path d="M31 47.75L32.5 56a156.48 156.48 0 0 1 88.65 10.37l3.31-7.69A164.86 164.86 0 0 0 31 47.75zM32.38 73.07h-.21l1.65 8.22h.21a131.33 131.33 0 0 1 80 9.42l3.5-7.61a139.76 139.76 0 0 0-85.15-10.03zM39.6 97.29l1.47 8.25a104.69 104.69 0 0 1 60.27 7l3.34-7.69a113.06 113.06 0 0 0-65.08-7.56z"/></g></g></svg>