<svg xmlns="http://www.w3.org/2000/svg" viewBox="0 0 41.28 31.49"><defs><style>.cls-1{fill:#8a559e}</style></defs><g id="Layer_2" data-name="Layer 2"><g id="Layer_1-2" data-name="Layer 1"><path class="cls-1" d="M21.81 10.27a1.12 1.12 0 1 1-1.57 1.59l-8-8v26.51a1.12 1.12 0 0 1-1.11 1.13A1.13 1.13 0 0 1 10 30.37V3.81l-8 8a1.14 1.14 0 0 1-1.59 0 1.11 1.11 0 0 1 0-1.59l10-10a1.12 1.12 0 0 1 1.57 0zM19.47 21.22A1.12 1.12 0 1 1 21 19.63l8 8V1.13A1.12 1.12 0 0 1 30.2 0a1.13 1.13 0 0 1 1.13 1.13v26.55l8-8a1.14 1.14 0 0 1 1.59 0 1.11 1.11 0 0 1 0 1.59l-10 10a1.12 1.12 0 0 1-1.57 0z"/></g></g></svg>